Coordinates
version=1
nRows=12
nColumns=24
inDegrees=yes

Units are S.I. units (second, meters, Newtons, ...)
Angles are in degrees.

endheader
time	pelvis_tilt	pelvis_list	pelvis_rotation	pelvis_tx	pelvis_ty	pelvis_tz	hip_flexion_r	hip_adduction_r	hip_rotation_r	knee_angle_r	ankle_angle_r	subtalar_angle_r	mtp_angle_r	hip_flexion_l	hip_adduction_l	hip_rotation_l	knee_angle_l	ankle_angle_l	subtalar_angle_l	mtp_angle_l	lumbar_extension	lumbar_bending	lumbar_rotation
      3.62500000	     -9.96889839	     -4.66018607	     -0.42450299	     -1.26193182	     -0.01086383	      0.44919493	      4.99467445	      9.85007574	     13.12879630	     -8.49155878	      0.89840044	     -7.73673044	      0.46381867	     35.38611616	     -6.05625337	     -1.53581334	    -47.04003013	     -2.89845117	      4.00498895	     20.90047941	      7.82538592	      4.17173051	      7.21727896
      3.63000000	     -9.98894009	     -4.44559999	     -0.52124977	     -1.25514420	     -0.01125396	      0.44929618	      4.50615081	      9.63546531	     13.29647253	     -8.38241391	      1.13575944	     -7.81617077	      0.39752347	     35.73865492	     -5.83678388	     -1.58357510	    -45.57847050	     -2.73960466	      4.01280690	     20.35636925	      7.82431898	      3.97183343	      7.44607372
      3.63500000	    -10.00139353	     -4.24162823	     -0.62245556	     -1.24837433	     -0.01170808	      0.44938380	      4.02852229	      9.42967743	     13.43769624	     -8.30448431	      1.39438675	     -7.85108606	      0.37998798	     36.04842718	     -5.63478832	     -1.62858725	    -44.05532066	     -2.60222020	      4.04719759	     19.75523541	      7.81038921	      3.78432197	      7.68679821
      3.64000000	    -10.01850319	     -4.05203585	     -0.73098001	     -1.24162025	     -0.01223567	      0.44945906	      3.57532200	      9.23772081	     13.56233384	     -8.25826642	      1.66693723	     -7.85362318	      0.40682531	     36.32932950	     -5.45689022	     -1.67576301	    -42.47371404	     -2.49980199	      4.10085264	     19.12143073	      7.79654285	      3.61589884	      7.92924060
      3.64500000	    -10.03076403	     -3.87775518	     -0.84812106	     -1.23487301	     -0.01283099	      0.44952530	      3.13389642	      9.06182146	     13.67476706	     -8.24262195	      1.94861589	     -7.83515263	      0.46521310	     36.56895538	     -5.30422698	     -1.72586630	    -40.83820371	     -2.42870398	      4.16434095	     18.43850827	      7.77442905	      3.46695938	      8.18170941
      3.65000000	    -10.04978444	     -3.72383157	     -0.97983994	     -1.22813431	     -0.01350229	      0.44959751	      2.71597325	      8.90914342	     13.79530858	     -8.25806779	      2.22935134	     -7.80949704	      0.54112174	     36.78166406	     -5.18715166	     -1.78540734	    -39.15466160	     -2.40401934	      4.22057696	     17.75232603	      7.75419859	      3.34011618	      8.44224732
      3.65500000	    -10.14266686	     -3.59533065	     -1.09526276	     -1.22138150	     -0.01434026	      0.44969419	      2.39796603	      8.79308591	     13.90626879	     -8.31310284	      2.49204737	     -7.85240472	      0.60187509	     37.05048903	     -5.10132306	     -1.82858784	    -37.42095925	     -2.46039952	      4.31823387	     17.27696293	      7.81925286	      3.22697648	      8.62795801
      3.66000000	    -10.06917500	     -3.46181728	     -1.29427526	     -1.21465229	     -0.01501263	      0.44973121	      1.90074479	      8.65552202	     14.07667424	     -8.37578748	      2.79389086	     -7.74721612	      0.69516030	     37.07358013	     -5.04731001	     -1.97014100	    -35.65090098	     -2.49092727	      4.25493190	     16.39235408	      7.68709235	      3.14893014	      9.00083666
      3.66500000	    -10.11770366	     -3.35046080	     -1.46246297	     -1.20783246	     -0.01588934	      0.44978314	      1.53908005	      8.54912407	     14.23577794	     -8.45242998	      3.05415315	     -7.72905401	      0.74448684	     37.21102134	     -5.01547537	     -2.09839003	    -33.85458715	     -2.57375015	      4.28651933	     15.73602492	      7.70389281	      3.08002980	      9.26406086
      3.67000000	    -10.06099385	     -3.23586581	     -1.63195513	     -1.20109995	     -0.01670761	      0.44983547	      1.09259531	      8.44086484	     14.37892521	     -8.58361711	      3.36220871	     -7.67882880	      0.76687450	     37.20290647	     -4.97823732	     -2.20586527	    -32.04666455	     -2.62836597	      4.33756539	     14.90477168	      7.58658859	      2.99625057	      9.55847718
      3.67500000	    -10.16657672	     -3.15638783	     -1.83142634	     -1.19428971	     -0.01777934	      0.44989457	      0.82923055	      8.38072402	     14.56952114	     -8.74101947	      3.62899629	     -7.71797400	      0.79769250	     37.35279629	     -5.00364792	     -2.36530200	    -30.22239369	     -2.75765006	      4.32288695	     14.43997459	      7.65822255	      2.96355081	      9.83524547
      3.68000000	    -10.15189376	     -3.05602523	     -2.06584639	     -1.18745557	     -0.01869149	      0.44995126	      0.42312520	      8.28264904	     14.77900576	     -8.87769938	      3.89433695	     -7.64779311	      0.80039240	     37.32430415	     -5.02577057	     -2.57994284	    -28.38330144	     -2.89243029	      4.25701667	     13.84860195	      7.59703543	      2.91832538	     10.19336847
